<svg xmlns="http://www.w3.org/2000/svg" viewBox="0 0 512 512">
  <rect width="512" height="512" rx="100" fill="#0054e3"/>
  <rect x="100" y="80" width="230" height="300" rx="12" fill="#ffffff"/>
  <rect x="100" y="80" width="40" height="300" rx="8" fill="#a6caf0"/>
  <rect x="155" y="130" width="140" height="12" rx="6" fill="#0054e3"/>
  <rect x="155" y="160" width="110" height="8" rx="4" fill="#a6caf0"/>
  <rect x="155" y="185" width="125" height="8" rx="4" fill="#a6caf0"/>
  <rect x="155" y="210" width="100" height="8" rx="4" fill="#a6caf0"/>
  <rect x="155" y="235" width="120" height="8" rx="4" fill="#a6caf0"/>
  <rect x="155" y="280" width="130" height="10" rx="5" fill="#0054e3" opacity="0.5"/>
  <rect x="310" y="130" width="100" height="280" rx="12" fill="#ffffff" opacity="0.15"/>
  <rect x="310" y="130" width="20" height="280" rx="6" fill="#ffffff" opacity="0.3"/>
  <rect x="330" y="155" width="60" height="8" rx="4" fill="#ffffff" opacity="0.4"/>
  <rect x="330" y="175" width="50" height="6" rx="3" fill="#ffffff" opacity="0.3"/>
  <rect x="330" y="193" width="55" height="6" rx="3" fill="#ffffff" opacity="0.3"/>
</svg>
